<svg xmlns="http://www.w3.org/2000/svg" xmlns:xlink="http://www.w3.org/1999/xlink" width="473.841" height="569.846" viewBox="0 0 473.841 569.846">
  <defs>
    <clipPath id="clip-path">
      <circle id="Ellipse_2" data-name="Ellipse 2" cx="169" cy="169" r="169" transform="translate(0.333 0.005)" fill="#fff" stroke="#707070" stroke-width="1"/>
    </clipPath>
  </defs>
  <g id="Gruppe_199" data-name="Gruppe 199" transform="translate(-1.813 -0.006)">
    <g id="Gruppe_maskieren_1" data-name="Gruppe maskieren 1" transform="translate(63.546 0)" clip-path="url(#clip-path)">
      <g id="Gruppe_34" data-name="Gruppe 34" transform="translate(-74.184 -61.238)">
        <path id="Pfad_33" data-name="Pfad 33" d="M309.643,506.727l-3.251,107.292,71.529,3.252s-6.5-9.753-16.257-39.016S309.643,506.727,309.643,506.727Z" transform="translate(-306.392 -100.311)" fill="#fff"/>
        <path id="Pfad_34" data-name="Pfad 34" d="M308.952,447.852l3.25,45.517s71.529,78.032,84.535,100.792h16.255S331.711,460.857,308.952,447.852Z" transform="translate(-305.7 -116.216)" fill="#fff"/>
        <path id="Pfad_35" data-name="Pfad 35" d="M432.5,466.244c-16.257-13.005-120.3-97.539-123.55-110.544v84.534s61.774,68.277,74.779,94.287,45.519,81.284,52.022,84.535h26.01s-42.267-74.781-48.77-97.54-19.507-48.769-19.507-48.769,29.262,32.512,48.769,71.529,55.273,71.529,55.273,71.529l42.267,3.251S448.758,479.25,432.5,466.244Z" transform="translate(-305.7 -141.112)" fill="#fff"/>
        <path id="Pfad_36" data-name="Pfad 36" d="M390.235,354.864c-55.272-26.01-81.283-68.279-81.283-68.279v48.77S373.978,452.4,412.993,504.425,523.539,631.226,552.8,653.986l74.781-19.508S445.507,380.874,390.235,354.864Z" transform="translate(-284.433 -142.77)" fill="#fff"/>
        <path id="Pfad_37" data-name="Pfad 37" d="M370.726,261.194l-61.774-13.005S390.235,348.98,416.245,371.738s74.781,52.022,107.294,104.042S647.09,644.851,647.09,644.851h29.262S565.806,469.279,517.036,414.007,370.726,261.194,370.726,261.194Z" transform="translate(-305.7 -170.157)" fill="#fff"/>
        <path id="Pfad_38" data-name="Pfad 38" d="M526.585,339.567c0-42.267-45.519-126.8-74.781-152.813H390.029s45.518,26.01,61.775,71.529c19.1,53.474,42.268,87.786,42.268,87.786S416.039,235.524,364.018,186.754H321.75S429.044,326.561,474.563,365.577s126.8,156.063,126.8,156.063,68.279,113.8,91.037,139.807l29.262,3.251S624.124,518.39,611.119,505.383,526.585,381.834,526.585,339.567Z" transform="translate(-306.496 -182.5)" fill="#fff"/>
        <path id="Pfad_39" data-name="Pfad 39" d="M628.562,404.592C605.8,323.31,534.326,192.05,534.326,192.05l-19.56-5.3c32.514,26.01,84.534,253.6,84.534,253.6s-39.015-68.277-45.519-100.791c-14.258-71.29-61.774-152.813-61.774-152.813H449.739c39.017,42.267,58.524,159.315,68.279,195.08S709.846,661.448,709.846,661.448l42.267,3.251-3.252-42.267c-29.262-13.006-58.524-45.519-71.529-65.027s74.781,32.513,74.781,32.513V560.657S650.913,484.415,628.562,404.592Z" transform="translate(-276.173 -182.5)" fill="#fff"/>
        <path id="Pfad_40" data-name="Pfad 40" d="M594.28,201.761c11.688,15.284,23,12.81,32.314,66.489a8.652,8.652,0,0,0,.214.932c1.493,5.126,18.636,25.891,5.521,18.236-19.326-49.7-62.88-84.824-73.221-97.27a9.382,9.382,0,0,0-7.215-3.394h-5.581a9.356,9.356,0,0,0-8.9,12.27c13.958,42.563,60.584,120.691,106.1,240.99,2.306,6.093,20.3,1,21-5.471l11.808-109.216a9.283,9.283,0,0,0-.422-3.954c-4.821-14.439-36.154-105.5-68.206-132.51a8.793,8.793,0,0,0-5.673-2.109h-.264A9.35,9.35,0,0,0,594.28,201.761Z" transform="translate(-244.109 -148.472)" fill="#fff"/>
        <path id="Pfad_41" data-name="Pfad 41" d="M603.326,186.754,710.62,352.572V287.545L642.342,186.754Z" transform="translate(-226.173 -186.754)" fill="#fff"/>
        <path id="Pfad_42" data-name="Pfad 42" d="M694.92,186.754H649.4l48.77,68.278Z" transform="translate(-213.725 -186.754)" fill="#fff"/>
      </g>
    </g>
    <path id="Pfad_89" data-name="Pfad 89" d="M78.642-65.025H35.649v-44.982H11.934V0H35.649V-44.523H78.642V0H102.2V-110.007H78.642ZM156.978,1.836c26.163,0,39.015-16.065,39.015-40.086,0-20.043-9.945-37.332-36.72-37.332-25.857,0-40.239,15.759-40.239,39.627C119.034-14.841,129.9,1.836,156.978,1.836Zm.612-17.748c-10.4,0-14.841-7.5-14.841-20.808s4.437-20.655,15.3-20.655,14.229,8.568,14.229,20.5C172.278-23.715,168.3-15.912,157.59-15.912ZM201.5-93.636h8.568V0h22.8V-110.007H201.5Zm106.182,38.1-.918-18.207h-56.61l-1.683,18.819H282.9L247.248-18.054,248.931,0h58.14l1.53-18.666H272.34Zm14.841-18.207V0h22.8V-73.746Zm-1.989-25.092c0,7.65,5.049,12.087,13.158,12.087,8.721,0,13.464-4.284,13.464-12.24s-4.743-12.24-13.617-12.24C325.737-111.231,320.535-106.947,320.535-98.838Zm87.822,41.463-1.071-16.371H390.609v-9.333c0-7.191,1.071-10.251,8.721-10.251a33.085,33.085,0,0,1,10.71,1.989h.765l-1.836-17.289a49.072,49.072,0,0,0-15.3-2.448c-10.557,0-25.857,3.519-25.857,26.316v11.016H355.878v16.371h11.934V0h22.8V-57.375ZM433.143-1.836h10.863c-2.754,8.568-5.661,12.087-14.382,12.087a41.817,41.817,0,0,1-12.7-1.836h-.765l1.071,16.83c2.754,1.224,9.18,2.6,16.524,2.6,22.032,0,28.458-16.677,34.272-37.791l17.748-63.8H462.213l-12.24,54.468h-.459l-12.7-54.468H411.723Z" transform="translate(-10.122 542.005)" fill="#fff"/>
  </g>
</svg>
