<svg xmlns="http://www.w3.org/2000/svg" width="86.937" height="75.296" viewBox="0 0 86.937 75.296">
  <g id="first-aid-kit" transform="translate(0.25 0.251)">
    <g id="Gruppe_5" data-name="Gruppe 5" transform="translate(25.433 24.907)">
      <g id="Gruppe_4" data-name="Gruppe 4" transform="translate(0 0)">
        <path id="Pfad_18" data-name="Pfad 18" d="M147.321,148.14h-7.256v-7.256a2.65,2.65,0,0,0-2.632-2.668H126.957a2.65,2.65,0,0,0-2.65,2.65v7.256h-7.239a2.65,2.65,0,0,0-2.668,2.632V161.23a2.65,2.65,0,0,0,2.65,2.65h7.256v7.239a2.65,2.65,0,0,0,2.632,2.668H137.4a2.65,2.65,0,0,0,2.65-2.65h0V163.88H147.3a2.65,2.65,0,0,0,2.668-2.632V150.79A2.65,2.65,0,0,0,147.321,148.14Zm-.907,12.183h-8.128a1.779,1.779,0,0,0-1.779,1.779v8.128h-8.644V162.1a1.779,1.779,0,0,0-1.779-1.779h-8.128V151.7h8.128a1.779,1.779,0,0,0,1.779-1.779v-8.146h8.626V149.9a1.779,1.779,0,0,0,1.779,1.779h8.146Z" transform="translate(-114.4 -138.216)" fill="#fff" stroke="#fff" stroke-width="0.5"/>
      </g>
    </g>
    <g id="Gruppe_7" data-name="Gruppe 7">
      <g id="Gruppe_6" data-name="Gruppe 6">
        <path id="Pfad_19" data-name="Pfad 19" d="M74.165,37.787H59.51v-6.26a5.176,5.176,0,0,0-5.006-5.34q-.218-.007-.437,0h-21.7a5.176,5.176,0,0,0-5.438,4.9q-.011.218,0,.437v6.225H12.272C6.616,37.752,0,40.971,0,50.023V88.707c0,9.053,6.616,12.272,12.272,12.272H74.165c5.656,0,12.272-3.219,12.272-12.272V50.059C86.437,41.006,79.839,37.787,74.165,37.787Zm-43.681-6.26a1.668,1.668,0,0,1,1.9-1.9h21.68c1.9,0,1.9,1.369,1.9,1.9v6.225H30.484Zm52.4,57.18c0,7.861-6.083,8.715-8.715,8.715H12.272c-2.614,0-8.715-.854-8.715-8.715V50.059c0-7.861,6.083-8.715,8.715-8.715H74.165c2.614,0,8.715.854,8.715,8.715V88.707Z" transform="translate(0 -26.184)" fill="#fff" stroke="#fff" stroke-width="0.5"/>
      </g>
    </g>
  </g>
</svg>
