<svg xmlns="http://www.w3.org/2000/svg" width="84.59" height="79.361" viewBox="0 0 84.59 79.361">
  <g id="home" transform="translate(0.5 0.5)">
    <path id="Pfad_1" data-name="Pfad 1" d="M103.019,241.6H47.51a7.519,7.519,0,0,1-7.51-7.51V194.575a2.612,2.612,0,0,1,5.224,0v39.513a2.288,2.288,0,0,0,2.286,2.286h55.509a2.288,2.288,0,0,0,2.286-2.286V194.575a2.612,2.612,0,0,1,5.224,0v39.513A7.519,7.519,0,0,1,103.019,241.6Z" transform="translate(-33.47 -163.238)" fill="#fff" stroke="#fff" stroke-width="1"/>
    <path id="Pfad_2" data-name="Pfad 2" d="M80.978,56.5a2.6,2.6,0,0,1-1.847-.765L46.644,23.244a6.865,6.865,0,0,0-9.7,0L4.46,55.731A2.612,2.612,0,0,1,.765,52.037L33.253,19.55a12.1,12.1,0,0,1,17.085,0L82.825,52.037A2.612,2.612,0,0,1,80.978,56.5Z" transform="translate(0 -16.017)" fill="#fff" stroke="#fff" stroke-width="1"/>
  </g>
</svg>
