<svg xmlns="http://www.w3.org/2000/svg" width="102.571" height="87.945" viewBox="0 0 102.571 87.945">
  <g id="circular-saw" transform="translate(0.356 0.262)">
    <path id="Pfad_53" data-name="Pfad 53" d="M99.088,58.015A39.62,39.62,0,0,0,64.432,23.587l-37.343-10.5a1.5,1.5,0,0,0-1.468.383L5,34.1a1.5,1.5,0,0,0,0,2.122L21.845,53.069a38.689,38.689,0,0,0-.919,4.945,7.986,7.986,0,0,0-7.433,7.862,1.5,1.5,0,0,0,1.5,1.515H25a35.63,35.63,0,0,0,1.639,6.969l-.257-.039a1.5,1.5,0,1,0-.439,2.97l2,.3a35.067,35.067,0,0,0,5.232,8.154l-.225.051a1.5,1.5,0,0,0,.336,2.963,1.477,1.477,0,0,0,.343-.039l1.948-.449a35.065,35.065,0,0,0,9.092,6.277l-.2.148a1.5,1.5,0,0,0,1.789,2.411l1.63-1.211a35.432,35.432,0,0,0,9.493,2.016l-.159.257a1.5,1.5,0,0,0,2.546,1.592l1.1-1.76a35.586,35.586,0,0,0,10.826-1.932l-.038.257a1.5,1.5,0,0,0,1.265,1.7,1.484,1.484,0,0,0,.22.016,1.5,1.5,0,0,0,1.483-1.282l.3-1.995a35.108,35.108,0,0,0,8.155-5.232l.052.226a1.5,1.5,0,0,0,1.458,1.164,1.529,1.529,0,0,0,.339-.039,1.5,1.5,0,0,0,1.125-1.8l-.449-1.947a35.036,35.036,0,0,0,6.275-9.092l.15.2a1.5,1.5,0,1,0,2.411-1.788l-1.213-1.635A35.594,35.594,0,0,0,95.025,67.4h10a1.5,1.5,0,0,0,1.5-1.515A7.986,7.986,0,0,0,99.088,58.015Zm-3.022-.027H81.1a21.614,21.614,0,0,0-42.193,0H23.948a36.366,36.366,0,0,1,72.119,0Zm-18.031,0H41.979a18.633,18.633,0,0,1,36.057,0ZM25.325,44.156l-9-9L28.812,22.677l14.955,4.2A39.962,39.962,0,0,0,25.325,44.156Zm-17.145-9L27.123,16.217l26.932,7.572a38.723,38.723,0,0,0-5.586,1.3L28.781,19.55a1.5,1.5,0,0,0-1.468.383L13.145,34.1a1.5,1.5,0,0,0,0,2.122L23.926,47c-.4.916-.767,1.852-1.1,2.8ZM91.021,71.869l-.035-.047a1.5,1.5,0,1,0-2.41,1.789l1.234,1.662a32.036,32.036,0,0,1-5.048,8.284l-.023-.1a1.5,1.5,0,1,0-2.925.676l.471,2.043a32.141,32.141,0,0,1-6.846,4.965l.012-.086a1.5,1.5,0,1,0-2.969-.439l-.3,2.053a32.39,32.39,0,0,1-9.387,2.222l.016-.026a1.5,1.5,0,1,0-2.546-1.591L59.186,95a32.642,32.642,0,0,1-8.365-1.287l.05-.037a1.5,1.5,0,1,0-1.789-2.411L47.417,92.5a32.123,32.123,0,0,1-8.278-5.049l.1-.022a1.5,1.5,0,1,0-.675-2.926l-2.043.472a32.07,32.07,0,0,1-4.955-6.844l.08.012a1.62,1.62,0,0,0,.221.015,1.5,1.5,0,0,0,.217-2.986l-2.05-.3a32.408,32.408,0,0,1-2.007-7.47H48.593a12.351,12.351,0,0,0,22.833,0H91.993a32.7,32.7,0,0,1-.972,4.479ZM51.928,67.392H68.085a9.349,9.349,0,0,1-16.157,0Zm-35.181-3a4.983,4.983,0,0,1,4.709-3.4H98.563a4.984,4.984,0,0,1,4.709,3.4Z" transform="translate(-4.557 -13.035)" fill="#fff" stroke="#fff" stroke-width="0.5"/>
  </g>
</svg>
