<svg xmlns="http://www.w3.org/2000/svg" width="86.939" height="62.537" viewBox="0 0 86.939 62.537">
  <g id="book" transform="translate(0.25 0.25)">
    <g id="Gruppe_36" data-name="Gruppe 36">
      <path id="Pfad_50" data-name="Pfad 50" d="M84.764,63.464h-5.7V61.52a1.676,1.676,0,0,0-1.206-1.675A47.2,47.2,0,0,0,65.78,58.3c-6.7,0-15.833,1.508-22.586,8.378-6.7-6.937-15.9-8.378-22.586-8.378a47.2,47.2,0,0,0-12.08,1.541A1.676,1.676,0,0,0,7.322,61.52v1.927H1.676A1.676,1.676,0,0,0,0,65.123v53.516A1.671,1.671,0,0,0,2.5,120.1c.168-.084,16.923-9.249,40.313-3.351h.4a1.677,1.677,0,0,0,.4,0c23.457-5.948,40.212,3.2,40.313,3.351a1.676,1.676,0,0,0,2.513-1.441V65.14A1.675,1.675,0,0,0,84.764,63.464ZM3.351,115.974V66.815h4v42.022a1.675,1.675,0,0,0,1.927,1.675,73.328,73.328,0,0,1,10.472-.838,43.461,43.461,0,0,1,14.309,2.161A61.6,61.6,0,0,0,3.351,115.974Zm16.4-9.634a73.72,73.72,0,0,0-9.115.586V62.844a46.21,46.21,0,0,1,9.936-1.106c6.266,0,14.912,1.441,20.91,8.21l.05,41.737C38.051,109.406,31.248,106.34,19.754,106.34ZM44.887,69.948c6-6.7,14.644-8.21,20.91-8.21a46.413,46.413,0,0,1,9.936,1.106v44.082a73.694,73.694,0,0,0-9.064-.6c-11.427,0-18.246,3.066-21.782,5.345Zm38.185,46.026a61.608,61.608,0,0,0-30.779-4.138,43.565,43.565,0,0,1,14.376-2.161,73.3,73.3,0,0,1,10.539.821,1.675,1.675,0,0,0,1.927-1.675v-42h4Z" transform="translate(0 -58.303)" fill="#fff" stroke="#fff" stroke-width="0.5"/>
    </g>
  </g>
</svg>
